<svg width="697" height="384" viewBox="0 0 697 384" fill="none" xmlns="http://www.w3.org/2000/svg">
<path d="M325 2.3333C297.533 5.66663 297.933 5.5333 257.667 25.4C226.6 40.8666 226.2 41 215 52.3333C204.733 62.6 193.933 77.8 191.933 85C191 88.3333 185.267 103.267 182.467 109.8C181.4 112.467 178.067 117.267 175.133 120.467C168.867 127.267 166.333 132.067 164.2 140.2L162.867 145.933L156.333 145.133C152.733 144.6 138.2 140.6 124.067 136.067C65.9334 117.667 47.9334 113.133 35 114.067C22.8667 114.867 12.3334 120.067 5.53337 128.6C0.733374 134.733 0.333374 135.8 0.333374 143.8C0.333374 152.067 0.600041 152.6 5.80004 158.333C11.2667 164.2 21.9334 170.333 29.5334 171.8C33.5334 172.6 33.5334 172.6 32.7334 168.067C31.8 161.667 34.2 157.933 41.4 154.6C47.1334 151.933 49.6667 151.667 72.3334 151.8C85.9334 151.933 105.667 152.867 116.333 154.067C127 155.267 140.6 156.6 146.733 157C157.533 157.933 157.667 157.933 157.667 161.667C157.667 163.667 156.467 169.133 154.867 173.8C151.933 183.133 152.067 189.533 155.8 207.933C156.867 213.267 157.667 220.067 157.667 223.267C157.667 234.067 161.667 248.733 168.333 262.333C171.933 269.667 175.533 278.2 176.333 281.267C177.4 285.267 178.733 287.4 181.4 288.6C183.667 289.667 186.2 293 188.333 297.267C190.2 301.133 195.4 308.2 200.067 312.867C207.8 320.867 208.333 321.933 208.333 327.667C208.333 331 209.267 338.067 210.467 343.4C213.8 357.933 221.667 364.6 230.067 360.2C233.933 358.2 235 356.467 235 352.2C235 346.2 239.933 343.667 244.2 347.533C248.467 351.267 285.267 369.533 297 373.667C333.8 386.6 363.133 386.867 400.6 374.867C413.933 370.6 438.333 359.133 444.067 354.467C446.067 352.867 453.933 347 461.667 341.4C469.4 335.8 480.733 326.067 486.733 319.8C496.067 310.333 499.4 305.667 506.6 292.067C511.267 283 516.733 272.067 518.467 267.667C520.333 263.267 523.267 256.467 525.133 252.6C526.867 248.733 528.333 244.733 528.333 243.8C528.333 242.867 529.267 239.4 530.467 236.2C534.467 224.733 537 208.067 536.333 197.133L535.667 186.6L533.267 192.467C531.933 195.667 529.667 200.733 528.333 203.667C526.867 206.6 523.933 214.733 521.667 221.667C519.4 228.6 516.333 235.533 515 237C512.333 239.533 512.333 239.533 510.333 237C509.267 235.533 508.333 233.267 508.333 231.933C508.333 228.067 504.733 229.4 502.467 234.2C501.267 236.733 500.333 239.133 500.333 239.533C500.333 241.533 483.933 273.267 481.533 275.8C480.2 277.267 478.067 281.267 476.867 284.6C475.8 288.067 473.933 291.533 472.867 292.467C471.8 293.267 471 294.467 471 295.133C471 296.467 454.333 318.2 447.667 325.533C436.6 337.8 417.667 347.8 394.333 353.667C375.8 358.333 368.867 358.867 370.333 355.267C370.867 354.067 372.067 348.733 373 343.4C373.933 338.067 375.133 333.267 375.533 332.6C375.933 331.933 377.267 325.8 378.467 318.867C383.133 292.2 385.667 279.133 388.467 268.333C392.067 253.8 394.067 245.667 395.133 240.733C395.667 237.667 396.733 234.067 397.533 232.733C398.2 231.4 400.333 224.867 402.333 218.333C406.733 203.8 419 172.867 423.8 164.067C424.733 162.2 425.667 159.933 425.667 159.133C425.667 156.867 437.933 132.6 443.267 124.2C449.4 114.733 457 107 460.333 107C464.867 107 466.333 111.933 466.067 127.133C465.933 142.6 463.933 152.6 456.867 173.267C445.8 205.8 429 229.133 409.267 239.667C403.133 242.867 402.867 247.4 408.733 248.067C413.4 248.6 424.733 244.867 431.533 240.6C437.267 237.133 479.4 198.2 497 180.333C509.133 167.933 518.467 162.733 532.733 160.333C549.267 157.4 573.533 162.333 598.333 173.667C654.467 199.267 676.733 201.133 691 181.4C701.267 167.267 695.267 147.4 678.467 139.533C669.533 135.4 668.333 135.533 668.333 140.333C668.333 146.2 665 151.933 660.067 154.467C654.2 157.533 638.733 156.333 612.333 151C587.667 146.067 565 143.933 550.333 145.533C544.467 146.067 539.133 146.333 538.6 145.933C537.933 145.667 536.067 145.933 534.6 146.733C513.267 156.6 513 156.733 496.067 173.267C486.733 182.333 478.467 189.667 477.667 189.667C476.733 189.667 476.467 188.467 477 186.6C479.533 178.067 483.533 166.2 484.333 165C486.467 162.067 488.6 140.867 487.933 130.733C487.4 122.733 486.333 118.2 483.4 112.6C478.333 102.333 473.133 99 462.467 99C448.467 99.1333 441.4 103.933 429.4 121.667C423.267 130.6 408.333 162.733 408.333 166.867C408.333 168.067 407.8 169.667 407.133 170.333C406.467 171.133 404.6 175.8 402.867 181C401.133 186.067 399 191.8 398.067 193.667C397.133 195.533 396.333 198.467 396.333 200.333C396.333 202.2 395.4 205.4 394.333 207.533C393.267 209.533 392.333 213.133 392.333 215.533C392.333 217.8 391.4 221.4 390.333 223.533C389.267 225.533 388.333 228.333 388.333 229.533C388.333 232.467 382.6 244.333 381.133 244.333C379.4 244.333 382.733 205.267 384.733 202.067C386.467 199.4 392.467 153.933 394.333 130.2C395.267 118.6 395.133 117.8 392.2 115.133C389.133 112.333 382.467 110.333 378.2 111.267C375.4 111.8 371.133 119.667 369.533 127C369 129.533 367.267 137.4 365.667 144.333C364.067 151.267 362.067 161.667 361.133 167.267C360.067 174.333 358.467 179 356.067 182.467C352.733 187.133 352.6 187.533 354.6 190.6C356.467 193.4 356.467 195.133 355.267 202.733C350.333 231.933 343 304.467 343 323.8C343 339.667 345.133 349.533 349.8 355.533C354.6 361.667 352.733 362.067 325.667 361.4C303.933 360.733 300.2 360.333 295.4 357.8C292.333 356.333 289.533 354.467 289.133 353.8C288.6 353.133 285.267 351.533 281.4 350.2C274.867 348.067 269.133 345.267 261.667 340.467C259.8 339.267 255.667 337.4 252.333 336.2C248.733 335 245.667 332.867 244.6 330.867C242.467 327 243.4 311.533 246.333 303.667C247.4 300.733 248.2 296.733 248.333 294.733C248.333 292.733 249.667 286.2 251.133 280.067C252.733 273.933 254.867 263.667 255.933 257C256.867 250.467 258.333 244.467 259 243.8C259.8 243 260.333 241.533 260.333 240.467C260.333 239.267 261.267 236.6 262.333 234.467C263.4 232.467 264.333 229.933 264.333 229C264.333 226.067 281.8 180.733 289.267 164.333C300.733 139.133 309.133 125.267 317.533 118.067C325.533 111.267 327.4 114.867 327.267 136.067C327.133 151.133 326.6 154.733 322.333 169.4C312.467 204.067 296.6 229.133 276.867 241.667C267.533 247.533 265.8 249.4 268.467 251.267C271.4 253.133 281.533 251.267 290.6 247.133C298.6 243.4 308.2 235 338.067 205.533C346.333 197.4 347.667 194.467 342.333 195.8C337.533 197 336.733 193.4 340.067 185.933C350.2 162.733 352.067 136.2 344.6 121.4C339.8 111.933 334.2 108.333 324.467 108.333C311.667 108.467 303.933 113.533 293.4 129C284.733 141.8 271.667 170.733 266.467 189C265.667 191.933 264.2 195.667 263.267 197.267C262.467 198.867 261.667 201.267 261.667 202.6C261.667 203.933 260.733 206.733 259.667 208.867C258.6 210.867 257.667 214.467 257.667 216.6C257.667 218.867 256.6 222.6 255.133 224.867C253.8 227.133 251.667 233.133 250.333 238.333C246.733 252.067 245.267 252.333 246.2 239C247.933 216.733 250.6 196.6 253.667 183.267C254.467 180.067 255.4 170.2 255.8 161.267C256.333 152.333 257.267 144.2 258.067 143.4C258.733 142.467 261.8 141 264.867 140.067C272.6 137.667 281.133 128.867 282.333 121.933C283.133 117.267 282.733 115.8 279.533 111.667C267.667 96.0667 247 101.933 237.667 123.533C231.667 137.267 231 139.133 231 141.533C231 147.933 220.333 151 198.333 151C181 151 180.333 150.6 182.733 141.933C186.333 129.267 190.333 119.133 194.467 112.333C196.067 109.667 197.8 105.533 198.333 103C198.867 100.333 201.267 96.4666 203.8 94.0666C206.333 91.6666 208.333 89 208.333 88.2C208.333 84.7333 239.533 54.0666 251.267 46.0666C269.4 33.5333 317.533 13.2666 337.933 9.66663C344.467 8.46663 346.467 8.46663 348.867 10.0666C350.867 11.5333 357.8 12.2 373.667 12.7333C406.867 13.8 423.533 19.2666 453 39C479.4 56.6 496.6 72.3333 507 88.3333C510.2 93.1333 513.667 98.4666 514.867 100.333C517.533 104.467 524.467 119.667 528.467 130.333C530.2 134.733 532.333 139.4 533.133 140.733C535.8 144.867 536.467 140.867 534.333 134.733C533.133 131.533 531.267 126.067 530.2 122.467C527.4 113.8 517.8 95.5333 510.067 84.6C501.8 72.7333 465.933 37.2666 454.867 30.2C439.267 20.0666 413 10.0666 387.133 4.19996C371.8 0.86663 343.8 -0.066703 325 2.3333ZM273 118.2C274.6 120.467 274.733 122.2 273.8 124.733C272.333 128.467 261.267 135.667 259 134.333C256.6 132.867 257.533 123 260.467 118.867C263.933 113.933 269.933 113.533 273 118.2ZM227 157.8C227 159.267 226.067 166.6 225 174.067C223.933 181.533 222.467 192.2 221.667 197.667C220.867 203.133 219.667 214.6 219 223C218.333 231.4 217.133 241.267 216.333 244.733C215.667 248.2 214.6 257.267 214.2 264.733C213.267 279.667 212.2 282.333 208.2 280.2C206.867 279.533 205.667 278.2 205.667 277.4C205.667 276.6 203.267 270.733 200.2 264.467C188.467 239.4 185.4 230.733 181 208.867C178.867 198.333 177.533 162.733 179.133 161.133C179.533 160.6 186.733 159.933 195.133 159.667C203.533 159.267 213.4 158.067 217 157.133C226.2 154.6 227 154.6 227 157.8Z" fill="white"/>
</svg>
